# xmcd CD database file
# Copyright (C) 1997 Ti Kan
# 
# Track frame offsets:
#     177
#     11672
#     24997
#     38320
#     51750
#     64795
#     77257
#     88882
#     101985
#     113387
#     127185
#     141310
#     155465
#     167727
#     181720
#     193520
# 
# Disc length: 2773 seconds
# 
# Revision: 1
# Processed by: cddbd v1.4b41PL1 Copyright (c) Steve Scherf et al.
# Submitted via: DiscPlay 4.0.4
# 
DISCID=c40ad310
DTITLE=Blind Lemon Jefferson - Cat Man Blues
DYEAR=1900
DGENRE=
TTITLE0='Lectric Chair  Blues (1928)
TTITLE1=Piney Woods Money Mama (1928)
TTITLE2=Christmas Eve Blues (1928)
TTITLE3=Maltese Cat Blues (1928)
TTITLE4=See That My Grave Is Kept Clean (1928)
TTITLE5=Prison Cell Blues (1928)
TTITLE6=Change My Luck Blues (1928)
TTITLE7=Lemon's Cannon Ball Blues (1928)
TTITLE8=Oil Well Blues (1929)
TTITLE9=Peach Orchard Mama (1929)
TTITLE10=Mosquito Moan (1929)
TTITLE11=Southern Women Blues (1929)
TTITLE12=That Crawlin' Baby Blues (1929)
TTITLE13=Bed Springs Blues (1929)
TTITLE14=Yo Yo Blues (1929)
TTITLE15=Cat Man Blues (1929)
EXTD=
EXTT0=
EXTT1=
EXTT2=
EXTT3=
EXTT4=
EXTT5=
EXTT6=
EXTT7=
EXTT8=
EXTT9=
EXTT10=
EXTT11=
EXTT12=
EXTT13=
EXTT14=
EXTT15=
PLAYORDER=
